<svg xmlns="http://www.w3.org/2000/svg" viewBox="0 0 32 32" width="32" height="32">
  <defs>
    <linearGradient id="snapGrad" x1="0%" y1="0%" x2="100%" y2="100%">
      <stop offset="0%" stop-color="#4F46E5" />
      <stop offset="100%" stop-color="#7C3AED" />
    </linearGradient>
  </defs>
  <rect width="32" height="32" rx="7" fill="url(#snapGrad)" />
  <path d="M9 12a2 2 0 0 1 2-2h1.5l1.2-1.5a1.5 1.5 0 0 1 1.2-.5h2.2a1.5 1.5 0 0 1 1.2.5L19.5 10H21a2 2 0 0 1 2 2v9a2 2 0 0 1-2 2H11a2 2 0 0 1-2-2v-9z" fill="none" stroke="#FFFFFF" stroke-width="1.8" stroke-linejoin="round" />
  <circle cx="16" cy="16.5" r="3.2" fill="none" stroke="#FFFFFF" stroke-width="1.8" />
  <path d="M22 8l.7 1.5L24 10l-1.3.5L22 12l-.7-1.5L20 10l1.3-.5z" fill="#FDE047" />
</svg>
